<svg width="198" height="40" viewBox="0 0 198 40" fill="none" xmlns="http://www.w3.org/2000/svg">
<path d="M21.9715 5.04918C21.9715 3.04288 24.4114 2.05406 25.8081 3.4943L38.6784 16.7651C39.526 17.6391 40 18.8087 40 20.0262V35.387C40 37.3933 37.5601 38.3822 36.1633 36.9419L23.2931 23.6712C22.4455 22.7972 21.9715 21.6275 21.9715 20.41V5.04918Z" fill="#9328FF"/>
<path d="M10.7986 4.61296C10.7986 2.60667 13.2385 1.61785 14.6353 3.05808L27.3156 16.133C28.285 17.1326 28.8271 18.4704 28.8271 19.8628V34.9508C28.8271 36.9571 26.3872 37.9459 24.9905 36.5057L12.1202 23.2349C11.2726 22.3609 10.7986 21.1913 10.7986 19.9738V4.61296Z" fill="#4CBFFF"/>
<path d="M0 5.04918C0 3.04288 2.43992 2.05406 3.83668 3.4943L16.7069 16.7651C17.5545 17.6391 18.0285 18.8087 18.0285 20.0262V35.387C18.0285 37.3933 15.5886 38.3822 14.1919 36.9419L1.32165 23.6712C0.474031 22.7972 0 21.6275 0 20.41V5.04918Z" fill="#4A3AFF"/>
<path d="M49.848 30V12.12H52.68V30H49.848ZM60.9231 30.288C59.5951 30.288 58.4271 29.96 57.4191 29.304C56.4271 28.648 55.7311 27.768 55.3311 26.664L57.4191 25.68C57.7711 26.416 58.2511 27 58.8591 27.432C59.4831 27.864 60.1711 28.08 60.9231 28.08C61.5631 28.08 62.0831 27.936 62.4831 27.648C62.8831 27.36 63.0831 26.968 63.0831 26.472C63.0831 26.152 62.9951 25.896 62.8191 25.704C62.6431 25.496 62.4191 25.328 62.1471 25.2C61.8911 25.072 61.6271 24.976 61.3551 24.912L59.3151 24.336C58.1951 24.016 57.3551 23.536 56.7951 22.896C56.2511 22.24 55.9791 21.48 55.9791 20.616C55.9791 19.832 56.1791 19.152 56.5791 18.576C56.9791 17.984 57.5311 17.528 58.2351 17.208C58.9391 16.888 59.7311 16.728 60.6111 16.728C61.7951 16.728 62.8511 17.024 63.7791 17.616C64.7071 18.192 65.3631 19 65.7471 20.04L63.6591 21.024C63.4031 20.4 62.9951 19.904 62.4351 19.536C61.8911 19.168 61.2751 18.984 60.5871 18.984C59.9951 18.984 59.5231 19.128 59.1711 19.416C58.8191 19.688 58.6431 20.048 58.6431 20.496C58.6431 20.8 58.7231 21.056 58.8831 21.264C59.0431 21.456 59.2511 21.616 59.5071 21.744C59.7631 21.856 60.0271 21.952 60.2991 22.032L62.4111 22.656C63.4831 22.96 64.3071 23.44 64.8831 24.096C65.4591 24.736 65.7471 25.504 65.7471 26.4C65.7471 27.168 65.5391 27.848 65.1231 28.44C64.7231 29.016 64.1631 29.472 63.4431 29.808C62.7231 30.128 61.8831 30.288 60.9231 30.288ZM73.2043 30.288C71.8763 30.288 70.7083 29.96 69.7003 29.304C68.7083 28.648 68.0123 27.768 67.6123 26.664L69.7003 25.68C70.0523 26.416 70.5323 27 71.1403 27.432C71.7643 27.864 72.4523 28.08 73.2043 28.08C73.8443 28.08 74.3643 27.936 74.7643 27.648C75.1643 27.36 75.3643 26.968 75.3643 26.472C75.3643 26.152 75.2763 25.896 75.1003 25.704C74.9243 25.496 74.7003 25.328 74.4283 25.2C74.1723 25.072 73.9083 24.976 73.6363 24.912L71.5963 24.336C70.4763 24.016 69.6363 23.536 69.0763 22.896C68.5323 22.24 68.2603 21.48 68.2603 20.616C68.2603 19.832 68.4603 19.152 68.8603 18.576C69.2603 17.984 69.8123 17.528 70.5163 17.208C71.2203 16.888 72.0123 16.728 72.8923 16.728C74.0763 16.728 75.1323 17.024 76.0603 17.616C76.9883 18.192 77.6443 19 78.0283 20.04L75.9403 21.024C75.6843 20.4 75.2763 19.904 74.7163 19.536C74.1723 19.168 73.5563 18.984 72.8683 18.984C72.2763 18.984 71.8043 19.128 71.4523 19.416C71.1003 19.688 70.9243 20.048 70.9243 20.496C70.9243 20.8 71.0043 21.056 71.1643 21.264C71.3243 21.456 71.5323 21.616 71.7883 21.744C72.0443 21.856 72.3083 21.952 72.5803 22.032L74.6923 22.656C75.7643 22.96 76.5883 23.44 77.1643 24.096C77.7403 24.736 78.0283 25.504 78.0283 26.4C78.0283 27.168 77.8203 27.848 77.4043 28.44C77.0043 29.016 76.4443 29.472 75.7243 29.808C75.0043 30.128 74.1643 30.288 73.2043 30.288ZM85.3176 30.288C84.3416 30.288 83.4856 30.072 82.7496 29.64C82.0136 29.192 81.4376 28.576 81.0216 27.792C80.6216 26.992 80.4216 26.072 80.4216 25.032V17.016H83.1336V24.792C83.1336 25.384 83.2536 25.904 83.4936 26.352C83.7336 26.8 84.0696 27.152 84.5016 27.408C84.9336 27.648 85.4296 27.768 85.9896 27.768C86.5656 27.768 87.0696 27.64 87.5016 27.384C87.9336 27.128 88.2696 26.768 88.5096 26.304C88.7656 25.84 88.8936 25.296 88.8936 24.672V17.016H91.5816V30H89.0136V27.456L89.3016 27.792C88.9976 28.592 88.4936 29.208 87.7896 29.64C87.0856 30.072 86.2616 30.288 85.3176 30.288ZM100.844 30.288C99.5481 30.288 98.3961 29.992 97.3881 29.4C96.3961 28.792 95.6201 27.976 95.0601 26.952C94.5001 25.912 94.2201 24.752 94.2201 23.472C94.2201 22.16 94.5001 21 95.0601 19.992C95.6361 18.984 96.4041 18.192 97.3641 17.616C98.3241 17.024 99.4121 16.728 100.628 16.728C101.604 16.728 102.476 16.896 103.244 17.232C104.012 17.568 104.66 18.032 105.188 18.624C105.716 19.2 106.116 19.864 106.388 20.616C106.676 21.368 106.82 22.168 106.82 23.016C106.82 23.224 106.812 23.44 106.796 23.664C106.78 23.888 106.748 24.096 106.7 24.288H96.3561V22.128H105.164L103.868 23.112C104.028 22.328 103.972 21.632 103.7 21.024C103.444 20.4 103.044 19.912 102.5 19.56C101.972 19.192 101.348 19.008 100.628 19.008C99.9081 19.008 99.2681 19.192 98.7081 19.56C98.1481 19.912 97.7161 20.424 97.4121 21.096C97.1081 21.752 96.9881 22.552 97.0521 23.496C96.9721 24.376 97.0921 25.144 97.4121 25.8C97.7481 26.456 98.2121 26.968 98.8041 27.336C99.4121 27.704 100.1 27.888 100.868 27.888C101.652 27.888 102.316 27.712 102.86 27.36C103.42 27.008 103.86 26.552 104.18 25.992L106.388 27.072C106.132 27.68 105.732 28.232 105.188 28.728C104.66 29.208 104.02 29.592 103.268 29.88C102.532 30.152 101.724 30.288 100.844 30.288ZM117.094 30V14.64H112.342V12.12H124.582V14.64H119.902V30H117.094ZM125.006 30V17.016H127.598V19.632L127.358 19.248C127.646 18.4 128.11 17.792 128.75 17.424C129.39 17.04 130.158 16.848 131.054 16.848H131.846V19.32H130.718C129.822 19.32 129.094 19.6 128.534 20.16C127.99 20.704 127.718 21.488 127.718 22.512V30H125.006ZM137.589 30.288C136.709 30.288 135.933 30.136 135.261 29.832C134.605 29.512 134.093 29.08 133.725 28.536C133.357 27.976 133.173 27.32 133.173 26.568C133.173 25.864 133.325 25.232 133.629 24.672C133.949 24.112 134.437 23.64 135.093 23.256C135.749 22.872 136.573 22.6 137.565 22.44L142.077 21.696V23.832L138.093 24.528C137.373 24.656 136.845 24.888 136.509 25.224C136.173 25.544 136.005 25.96 136.005 26.472C136.005 26.968 136.189 27.376 136.557 27.696C136.941 28 137.429 28.152 138.021 28.152C138.757 28.152 139.397 27.992 139.941 27.672C140.501 27.352 140.933 26.928 141.237 26.4C141.541 25.856 141.693 25.256 141.693 24.6V21.264C141.693 20.624 141.453 20.104 140.973 19.704C140.509 19.288 139.885 19.08 139.101 19.08C138.381 19.08 137.749 19.272 137.205 19.656C136.677 20.024 136.285 20.504 136.029 21.096L133.773 19.968C134.013 19.328 134.405 18.768 134.949 18.288C135.493 17.792 136.125 17.408 136.845 17.136C137.581 16.864 138.357 16.728 139.173 16.728C140.197 16.728 141.101 16.92 141.885 17.304C142.685 17.688 143.301 18.224 143.733 18.912C144.181 19.584 144.405 20.368 144.405 21.264V30H141.813V27.648L142.365 27.72C142.061 28.248 141.669 28.704 141.189 29.088C140.725 29.472 140.189 29.768 139.581 29.976C138.989 30.184 138.325 30.288 137.589 30.288ZM153.744 30.288C152.448 30.288 151.296 29.992 150.288 29.4C149.296 28.792 148.504 27.976 147.912 26.952C147.336 25.928 147.048 24.768 147.048 23.472C147.048 22.192 147.336 21.04 147.912 20.016C148.488 18.992 149.28 18.192 150.288 17.616C151.296 17.024 152.448 16.728 153.744 16.728C154.624 16.728 155.448 16.888 156.216 17.208C156.984 17.512 157.648 17.936 158.208 18.48C158.784 19.024 159.208 19.656 159.48 20.376L157.104 21.48C156.832 20.808 156.392 20.272 155.784 19.872C155.192 19.456 154.512 19.248 153.744 19.248C153.008 19.248 152.344 19.432 151.752 19.8C151.176 20.152 150.72 20.656 150.384 21.312C150.048 21.952 149.88 22.68 149.88 23.496C149.88 24.312 150.048 25.048 150.384 25.704C150.72 26.344 151.176 26.848 151.752 27.216C152.344 27.584 153.008 27.768 153.744 27.768C154.528 27.768 155.208 27.568 155.784 27.168C156.376 26.752 156.816 26.2 157.104 25.512L159.48 26.64C159.224 27.328 158.808 27.952 158.232 28.512C157.672 29.056 157.008 29.488 156.24 29.808C155.472 30.128 154.64 30.288 153.744 30.288ZM162.131 30V11.832H164.843V24L163.787 23.736L170.291 17.016H173.675L168.779 22.224L173.891 30H170.771L166.211 23.112L167.819 22.896L163.979 26.976L164.843 25.176V30H162.131ZM181.61 30.288C180.314 30.288 179.162 29.992 178.154 29.4C177.162 28.792 176.386 27.976 175.826 26.952C175.266 25.912 174.986 24.752 174.986 23.472C174.986 22.16 175.266 21 175.826 19.992C176.402 18.984 177.17 18.192 178.13 17.616C179.09 17.024 180.178 16.728 181.394 16.728C182.37 16.728 183.242 16.896 184.01 17.232C184.778 17.568 185.426 18.032 185.954 18.624C186.482 19.2 186.882 19.864 187.154 20.616C187.442 21.368 187.586 22.168 187.586 23.016C187.586 23.224 187.578 23.44 187.562 23.664C187.546 23.888 187.514 24.096 187.466 24.288H177.122V22.128H185.93L184.634 23.112C184.794 22.328 184.738 21.632 184.466 21.024C184.21 20.4 183.81 19.912 183.266 19.56C182.738 19.192 182.114 19.008 181.394 19.008C180.674 19.008 180.034 19.192 179.474 19.56C178.914 19.912 178.482 20.424 178.178 21.096C177.874 21.752 177.754 22.552 177.818 23.496C177.738 24.376 177.858 25.144 178.178 25.8C178.514 26.456 178.978 26.968 179.57 27.336C180.178 27.704 180.866 27.888 181.634 27.888C182.418 27.888 183.082 27.712 183.626 27.36C184.186 27.008 184.626 26.552 184.946 25.992L187.154 27.072C186.898 27.68 186.498 28.232 185.954 28.728C185.426 29.208 184.786 29.592 184.034 29.88C183.298 30.152 182.49 30.288 181.61 30.288ZM190.232 30V17.016H192.824V19.632L192.584 19.248C192.872 18.4 193.336 17.792 193.976 17.424C194.616 17.04 195.384 16.848 196.28 16.848H197.072V19.32H195.944C195.048 19.32 194.32 19.6 193.76 20.16C193.216 20.704 192.944 21.488 192.944 22.512V30H190.232Z" fill="#170F49"/>
</svg>
