<svg width="60" height="54" viewBox="0 0 60 54" fill="none" xmlns="http://www.w3.org/2000/svg">
<path d="M32.5625 4.81397C32.5625 1.84056 36.1785 0.375095 38.2486 2.50958L57.3227 22.1773C58.5789 23.4726 59.2815 25.2061 59.2815 27.0105V49.7758C59.2815 52.7492 55.6654 54.2147 53.5954 52.0802L34.5212 32.4124C33.265 31.1171 32.5625 29.3836 32.5625 27.5792V4.81397Z" fill="#9328FF"/>
<path d="M16.0039 4.16749C16.0039 1.19408 19.62 -0.271389 21.69 1.86309L40.4827 21.2406C41.9194 22.722 42.7229 24.7047 42.7229 26.7684V49.1293C42.7229 52.1027 39.1068 53.5682 37.0368 51.4337L17.9626 31.7659C16.7064 30.4706 16.0039 28.7371 16.0039 26.9328V4.16749Z" fill="#4CBFFF"/>
<path d="M0 4.81397C0 1.84056 3.61605 0.375095 5.68611 2.50958L24.7602 22.1773C26.0164 23.4726 26.719 25.2061 26.719 27.0105V49.7758C26.719 52.7492 23.1029 54.2147 21.0329 52.0802L1.95873 32.4124C0.702531 31.1171 0 29.3836 0 27.5792V4.81397Z" fill="#4A3AFF"/>
</svg>
